<svg xmlns="http://www.w3.org/2000/svg" xmlns:xlink="http://www.w3.org/1999/xlink" width="2000" zoomAndPan="magnify" viewBox="0 0 1500 1499.999933" height="2000" preserveAspectRatio="xMidYMid meet" version="1.0"><defs><g/><clipPath id="1677dc60dd"><path d="M 45.636719 133.679688 L 1455 133.679688 L 1455 1366.320312 L 45.636719 1366.320312 Z M 45.636719 133.679688 " clip-rule="nonzero"/></clipPath><clipPath id="1924dc34dd"><path d="M 750 133.679688 L 1454.363281 1366.320312 L 45.636719 1366.320312 Z M 750 133.679688 " clip-rule="nonzero"/></clipPath><clipPath id="c9cf5cbcc1"><path d="M 0.636719 0.679688 L 1409.398438 0.679688 L 1409.398438 1233.320312 L 0.636719 1233.320312 Z M 0.636719 0.679688 " clip-rule="nonzero"/></clipPath><clipPath id="7ce8f55cec"><path d="M 705 0.679688 L 1409.363281 1233.320312 L 0.636719 1233.320312 Z M 705 0.679688 " clip-rule="nonzero"/></clipPath><clipPath id="f7353b0380"><rect x="0" width="1410" y="0" height="1234"/></clipPath><clipPath id="cb1391e540"><rect x="0" width="1001" y="0" height="1500"/></clipPath><clipPath id="8d9740667e"><rect x="0" width="1000" y="0" height="1500"/></clipPath></defs><g clip-path="url(#1677dc60dd)"><g clip-path="url(#1924dc34dd)"><g transform="matrix(1, 0, 0, 1, 45, 133)"><g clip-path="url(#f7353b0380)"><g clip-path="url(#c9cf5cbcc1)"><g clip-path="url(#7ce8f55cec)"><path fill="#1a1a1a" d="M 0.636719 0.679688 L 1411.429688 0.679688 L 1411.429688 1233.320312 L 0.636719 1233.320312 Z M 0.636719 0.679688 " fill-opacity="1" fill-rule="nonzero"/></g></g></g></g></g></g><g transform="matrix(1, 0, 0, 1, 183, 0.000000000000112861)"><g clip-path="url(#cb1391e540)"><g fill="#4a4a4a" fill-opacity="1"><g transform="translate(0.751585, 1273.824094)"><g><path d="M 735.109375 0 L 669.796875 -126.453125 L 329.34375 -126.453125 L 264.03125 0 L 13.890625 0 L 500.265625 -903.25 L 985.234375 0 Z M 582.25 -295.984375 L 500.265625 -454.40625 L 416.875 -295.984375 Z M 582.25 -295.984375 "/></g></g></g></g></g><g transform="matrix(1, 0, 0, 1, 317, 0.000000000000112861)"><g clip-path="url(#8d9740667e)"><g fill="#d67454" fill-opacity="1"><g transform="translate(0.112311, 1273.824094)"><g><path d="M 735.109375 0 L 669.796875 -126.453125 L 329.34375 -126.453125 L 264.03125 0 L 13.890625 0 L 500.265625 -903.25 L 985.234375 0 Z M 582.25 -295.984375 L 500.265625 -454.40625 L 416.875 -295.984375 Z M 582.25 -295.984375 "/></g></g></g></g></g></svg>